<?xml version="1.0" encoding="utf-8"?>
<!-- Generator: Adobe Illustrator 23.0.1, SVG Export Plug-In . SVG Version: 6.00 Build 0)  -->
<svg version="1.1" id="Layer_1" xmlns="http://www.w3.org/2000/svg" xmlns:xlink="http://www.w3.org/1999/xlink" x="0px" y="0px"
	 viewBox="0 0 228.7 39.1" style="enable-background:new 0 0 228.7 39.1;" xml:space="preserve">
<style type="text/css">
	.st0{fill:#F9F9DF;}
	.st1{fill:#F59AB7;}
</style>
<g>
	<path class="st0" d="M20.7,28.9l-5.3-0.5c-0.1,0-0.3,0-0.4-0.1l-2.8-0.9c-0.2-0.1-0.4-0.2-0.5-0.3L9.9,26c-0.1-0.1-0.2-0.2-0.3-0.3
		l-1.9-2.1c-0.2-0.2-0.4-0.5-0.5-0.9L6.6,20c-0.1-0.2-0.1-0.5,0-0.7l0.3-2.5c0-0.1,0.1-0.3,0.1-0.4l0.4-1.2c0.1-0.2,0.1-0.3,0.2-0.5
		c1.9-2.7,4.7-4.7,8.2-6.1c0.1,0,0.2-0.1,0.3-0.1l2.6-0.6c0.2,0,0.3-0.1,0.5-0.1h0.9l0.3-2.1c0-0.2,0.1-0.4,0.1-0.5
		c0.2-0.5,0.5-1,0.9-1.5c0.4-0.4,0.9-0.7,1.5-0.7c0,0,0.1,0,0.1,0c1,0,2,0.6,2.6,1.5c0.2,0.3,0.3,0.6,0.4,1l0.2,2.2
		c0,0.3,0,0.6-0.1,0.9l-0.4,1l-0.1,0.9l0.1,1c0.1,0.7-0.2,1.3-0.7,1.7l-1.1,0.9c-0.4,0.3-0.8,0.5-1.3,0.5c-0.2,0-0.4,0-0.5-0.1
		L20.3,14l-2.9,0.5l-1.8,0.8l-1.9,1.5l-0.8,1.2l-0.3,1.2l0.4,1.3l0.4,0.5l0.5,0.5l1.6,0.8l3.4,0.5l1.3-0.2c0.1,0,0.2,0,0.3,0
		c0.2,0,0.4,0,0.5,0.1l0.7,0.2c0.3,0.1,0.6,0.3,0.8,0.5c0.5,0.5,0.9,1.1,1.1,1.9c0.1,0.6,0,1.1-0.3,1.6l-0.8,1.2
		c-0.4,0.5-1,0.9-1.7,0.9C20.8,28.9,20.8,28.9,20.7,28.9z"/>
	<path class="st0" d="M24.6,28.9c-0.5,0-1.1-0.2-1.5-0.6c-0.7-0.7-1-1.6-1.1-2.6c0-0.3,0-0.6,0.1-0.8l2-5.5l0.2-1.5
		c0-0.1,0-0.2,0.1-0.3l0.5-1.6c0-0.1,0.1-0.2,0.1-0.2c0.2-0.5,0.5-1.1,0.9-1.6c0.3-0.5,0.8-0.8,1.4-0.9c0.1,0,0.2,0,0.3,0
		c0.5,0,1,0.2,1.3,0.5l1,0.9c0.4,0.4,0.7,0.9,0.7,1.5V17l3.1-1.6c0.1-0.1,0.2-0.1,0.4-0.2l1.6-0.5c0.2-0.1,0.4-0.1,0.6-0.1
		c0.2,0,0.4,0,0.6,0.1l1.6,0.5c0.7,0.2,1.2,0.7,1.4,1.4l0.4,1.3c0.1,0.5,0.1,1.1-0.2,1.5s-0.7,0.8-1.3,0.9l-1.9,0.5
		c-0.2,0-0.3,0.1-0.5,0.1c-0.1,0-0.1,0-0.2,0l-0.6-0.1l-3.6,1.9l-0.7,0.8c-0.1,0.1-0.2,0.2-0.3,0.3l-1,0.7l-2.8,3.2
		c-0.2,0.2-0.4,0.4-0.6,0.5l-1.2,0.6C25.3,28.9,25,28.9,24.6,28.9z"/>
	<path class="st0" d="M47.5,28.9c-0.1,0-0.3,0-0.4,0l-3.5-0.7c-0.1,0-0.2,0-0.3-0.1l-1.6-0.6c-0.2-0.1-0.3-0.1-0.4-0.2l-1.3-0.8
		c-0.1-0.1-0.2-0.1-0.3-0.2l-3.3-3.1c-0.7-0.7-0.8-1.8-0.3-2.6l0.6-0.9l0.5-1.3c0-0.1,0.1-0.3,0.2-0.4l0.8-1.3
		c0.1-0.1,0.2-0.3,0.3-0.4l2.1-2c0.2-0.2,0.3-0.3,0.5-0.4l1.5-0.7c0.1,0,0.2-0.1,0.3-0.1l1.6-0.5c0.2-0.1,0.4-0.1,0.5-0.1
		c0.1,0,0.3,0,0.4,0l1.6,0.3c0.1,0,0.2,0.1,0.3,0.1l1.5,0.6c0.6,0.2,1,0.7,1.2,1.3l0.5,1.5c0.1,0.4,0.1,0.9,0,1.3l-0.6,1.6
		c-0.2,0.4-0.4,0.8-0.8,1l-3.7,2.3l1.6,0.4l1-0.2c0.1,0,0.2,0,0.3,0h1.7c0.9,0,1.7,0.6,1.9,1.5l0.3,1.4c0.2,0.9-0.2,1.9-1.1,2.3
		l-1.5,0.7c-0.2,0.1-0.5,0.2-0.7,0.2l-1.5,0.1C47.6,28.9,47.6,28.9,47.5,28.9z"/>
	<path class="st0" d="M55.6,28.9l-1.7-0.1c-0.5,0-0.9-0.2-1.2-0.5L51,26.7c-0.3-0.3-0.5-0.7-0.6-1.1L50,23.4c-0.1-0.4,0-0.8,0.2-1.2
		l0.8-1.8c0.1-0.3,0.3-0.5,0.6-0.7l4.5-3.6c0.1-0.1,0.2-0.2,0.3-0.2l3.5-1.8c0.2-0.1,0.4-0.2,0.6-0.2c0.5-0.1,1-0.2,1.6-0.5
		c0.2-0.1,0.5-0.2,0.8-0.2c0,0,0.1,0,0.1,0c1.2,0.1,2.2,0.6,3,1.6c0.1,0,0.2,0,0.3,0.1l1,0.3c1.1,0.3,1.7,1.4,1.4,2.4L68,20.1
		l-0.2,1.7c0.1,0.2,0.2,0.5,0.4,0.7c0.1,0.2,0.3,0.3,0.6,0.4l1.6,0.2l2.3-0.4c0.1,0,0.2,0,0.3,0c0.8,0,1.5,0.5,1.8,1.2l0.3,0.6
		c0.3,0.6,0.2,1.4-0.2,1.9l-0.7,1.1c-0.2,0.3-0.6,0.6-0.9,0.7L72,28.7c-0.2,0.1-0.4,0.1-0.6,0.1c0,0-1.8,0.1-1.8,0.1
		c-0.1,0-0.1,0-0.2,0l-2.2-0.2c-0.3,0-0.5-0.1-0.8-0.3l-1.7-1c-0.1-0.1-0.2-0.2-0.4-0.3l-1.4-1.3c-0.2-0.2-0.3-0.3-0.4-0.5l-0.1,0.1
		c-0.1,0.1-0.1,0.1-0.2,0.2L59,27.9c-0.2,0.1-0.4,0.2-0.6,0.3l-2,0.6c-0.2,0.1-0.4,0.1-0.6,0.1C55.7,28.9,55.7,28.9,55.6,28.9z"/>
	<path class="st0" d="M87.5,29.2c-0.2,0-0.3,0-0.5-0.1c-0.5-0.1-1-0.5-1.3-1l-1-1.8c-0.4-0.6-0.3-1.4,0-2l0.4-0.7l0.3-2l-2.3,1.8
		c-0.1,0.1-0.3,0.2-0.5,0.3l-2.2,0.9c-0.2,0.1-0.5,0.1-0.8,0.1c-0.4,0-0.8-0.1-1.1-0.4c-0.6-0.4-1-0.9-1.4-1.4L74,27.3
		c-0.1,0.2-0.3,0.3-0.4,0.4l-0.9,0.6c-0.3,0.3-0.8,0.4-1.2,0.4c0,0,0,0,0,0c-1.9,0-3.2-1.2-3.4-3.2c-0.1-0.5,0.1-1,0.4-1.4l4.2-5.5
		c0.1-0.1,0.1-0.1,0.2-0.2c3.6-3.6,4.7-4.5,5.3-4.8c0.3-0.2,0.7-0.3,1.1-0.3c0.3,0,0.7,0.1,1,0.3l1.1,0.6c0.3,0.2,0.6,0.4,0.7,0.7
		l0.7,1.2l2.4-1.7c0.2-0.1,0.4-0.2,0.6-0.3l1-0.3c0.2,0,0.3-0.1,0.5-0.1c0.4,0,0.7,0.1,1,0.3l1.3,0.8c0.3,0.2,0.5,0.4,0.7,0.7l1.1,2
		c0.2,0.3,0.2,0.6,0.3,0.9l0.1,2.3c0,0.2,0,0.4,0,0.6l-1.3,5.5c-0.1,0.5-0.4,0.9-0.8,1.2l-1.1,0.8C88.2,29,87.8,29.2,87.5,29.2z"/>
	<path class="st0" d="M113.8,28.9c-0.2,0-0.5,0-0.7-0.1l-1.4-0.6c-0.6-0.2-1.1-0.8-1.2-1.4l-0.4-2c-0.1-0.3-0.1-0.5,0-0.8l1.1-6.1
		l-3,3.3c-0.1,0.1-0.2,0.2-0.3,0.3l-1.4,1c-0.2,0.1-0.3,0.2-0.5,0.3l-1.7,0.6c-0.2,0.1-0.4,0.1-0.6,0.1c-0.7,0-1.3-0.3-1.7-0.9
		l-1-1.6c-0.2-0.3-0.3-0.6-0.3-0.9l-0.1-1.5c0-0.1,0-0.3,0-0.4l-5.1,7.4c-0.3,0.4-0.7,0.7-1.1,0.8l-1.5,0.4c-0.2,0-0.3,0.1-0.5,0.1
		c-0.8,0-1.5-0.5-1.8-1.2l-0.6-1.3c-0.3-0.6-0.2-1.4,0.2-2l10.3-14.8c0.1-0.2,0.3-0.4,0.5-0.5l1.4-1c0.3-0.2,0.7-0.4,1.1-0.4
		c0.2,0,0.4,0,0.6,0.1l1.7,0.6c0.5,0.2,1,0.6,1.2,1.1l0.7,1.7c0.1,0.1,0.1,0.2,0.1,0.4l0.4,2l2.2-2.3c0.2-0.2,0.4-0.3,0.7-0.5
		l1.7-0.7c0.2-0.1,0.5-0.1,0.8-0.1c0.4,0,0.9,0.1,1.3,0.4l1.4,1.1c0.3,0.2,0.5,0.5,0.6,0.8l0.7,1.7c0.1,0.2,0.1,0.3,0.1,0.5l0.3,2.2
		c0,0.1,0,0.3,0,0.4l-0.1,2c0,0.1,0,0.1,0,0.2l-1.1,6.2l0.2,1.5c0.1,0.5,0,1-0.3,1.4l-1,1.5C115.2,28.6,114.5,28.9,113.8,28.9z"/>
	<path class="st0" d="M114.3,40.6l-1.4-0.1c-0.1,0-0.2,0-0.4-0.1c-1.1-0.3-1.9-1-2.3-2c-0.2-0.5-0.2-1,0-1.5l0.4-0.8
		c0.3-0.7,1.1-1.2,1.8-1.2c0.2,0,0.3,0,0.5,0.1l1.2,0.3l1.4-0.6l3.1-3.2l3.9-5.4l0.3-0.5c-0.1,0-0.1,0-0.2,0c-0.3,0-0.5,0-0.8-0.1
		l-1.7-0.7c-0.2-0.1-0.5-0.2-0.7-0.4l-1-1c-0.1-0.1-0.2-0.2-0.3-0.4l-0.7-1.1c-0.1-0.1-0.1-0.3-0.2-0.4l-0.5-1.5
		c-0.1-0.2-0.1-0.3-0.1-0.5l-0.1-2.2c0-0.2,0-0.3,0-0.5l0.2-1.2c0.1-0.6,0.5-1.1,1-1.4l1.3-0.7c0.3-0.2,0.6-0.2,0.9-0.2
		c0.3,0,0.5,0.1,0.8,0.2l0.8,0.3c0.8,0.3,1.3,1.2,1.2,2.1l-0.2,1.9l0.2,1.2l0.2,0.5l0.3,0.2l0.2,0l0.8-0.4l2.5-2.3l0.6-1
		c0.2-0.4,0.6-0.7,1-0.9l1.3-0.5c0.2-0.1,0.5-0.1,0.7-0.1c0.4,0,0.7,0.1,1,0.3c0.9,0.5,1.4,1.4,1.6,2.4c0,0.2,0,0.5,0,0.7l-0.3,1.7
		c0,0.1-0.1,0.3-0.1,0.4l-1.1,2.6c0,0.1-0.1,0.2-0.2,0.3l-7,10.4c0,0.1-0.1,0.1-0.2,0.2l-3.8,4.3c-0.1,0.1-0.2,0.2-0.3,0.3l-2.2,1.6
		c-0.2,0.2-0.5,0.3-0.8,0.3l-2.1,0.4c-0.1,0-0.3,0-0.4,0C114.4,40.6,114.4,40.6,114.3,40.6z"/>
	<path class="st0" d="M134.1,28.9c-0.1,0-0.2,0-0.3,0l-2.1-0.3c-0.6-0.1-1.2-0.5-1.5-1l-0.5-1c-0.4-0.8-0.3-1.7,0.3-2.4l1.4-1.4
		c0.1-0.1,0.2-0.2,0.3-0.2l3.2-2.2l0.8-0.7c-0.1,0-0.2-0.1-0.4-0.1l-1-0.4c-0.5-0.2-0.9-0.7-1.1-1.2l-0.2-0.6
		c-0.3-0.8,0-1.7,0.7-2.2l1.2-0.9c0.2-0.1,0.4-0.2,0.6-0.3l1.1-0.3c0.2-0.1,0.4-0.1,0.6-0.1h0.9l0.7-0.2c0.2-0.1,0.4-0.1,0.6-0.1
		c0.1,0,0.2,0,0.2,0l3,0.4l0.5-0.2c0.3-0.1,0.5-0.2,0.8-0.2c0.2,0,0.4,0,0.5,0.1l1.1,0.3c0.5,0.1,0.9,0.4,1.1,0.8l0.6,1
		c0.3,0.5,0.4,1,0.3,1.6l-0.2,0.9c-0.1,0.5-0.4,0.9-0.8,1.1l-4.6,3.2l0.5,0.1c0.4,0.1,0.8,0.3,1.1,0.6l0.6,0.8
		c0.5,0.5,0.6,1.3,0.4,1.9l-0.3,1c-0.1,0.3-0.2,0.5-0.4,0.7l-0.6,0.7c-0.4,0.4-0.9,0.7-1.5,0.7c-0.1,0-0.2,0-0.3,0l-1-0.2l-6.3,0.4
		C134.2,28.9,134.2,28.9,134.1,28.9z"/>
	<path class="st0" d="M163.6,28.9c-0.1,0-0.2,0-0.3,0l-4.9-0.7c-0.2,0-0.3-0.1-0.5-0.1l-1.3-0.6c-0.3-0.1-0.6-0.4-0.8-0.6l-0.9-1.2
		c-0.5-0.7-0.5-1.7,0-2.4l0.9-1.1c0.4-0.5,1-0.8,1.6-0.8c0.2,0,0.3,0,0.5,0.1l0.6,0.1c0.2,0,0.4-0.1,0.5-0.1c0.4,0,0.8,0.1,1.1,0.3
		l0.8,0.5l1.1,0.2h2.4l5.2-1.2l-0.3-0.5l-1.8-1.8l-3.2-2.4c-0.2-0.1-0.3-0.3-0.5-0.5l-1.6-2.3c-0.1-0.2-0.2-0.4-0.3-0.7l-0.6-2.6
		c-0.1-0.6,0-1.1,0.3-1.6l0.3-0.4c0.2-0.2,0.4-0.4,0.7-0.6l1.3-0.7c0.2-0.1,0.3-0.2,0.5-0.2l2.9-0.7c0.1,0,0.2,0,0.3,0l3.1-0.3
		c0.1,0,0.1,0,0.2,0c0,0,3.4,0.1,3.4,0.1c0.3,0,0.5,0.1,0.8,0.2l2.7,1.3c0.4,0.2,0.7,0.5,0.9,0.9l0.6,1.2c0.3,0.7,0.3,1.5-0.2,2.1
		l-0.9,1.2c-0.4,0.5-1,0.8-1.6,0.8c-0.3,0-0.5,0-0.8-0.1l-3.5-1.4l-3.1,0.3l4.9,4.2c0.2,0.1,0.3,0.3,0.4,0.5l1.4,2.3
		c0.1,0.2,0.2,0.4,0.2,0.6l0.6,2.5c0.1,0.6,0,1.3-0.4,1.7l-1.9,2.3c-0.2,0.2-0.4,0.4-0.6,0.5l-1.3,0.7c-0.2,0.1-0.3,0.2-0.5,0.2
		l-2.9,0.7c-0.1,0-0.2,0-0.4,0.1C168.7,28.6,163.7,28.9,163.6,28.9z"/>
	<path class="st0" d="M189.2,29.1c-0.2,0-0.5,0-0.7-0.1l-1.3-0.5c-0.5-0.2-1-0.6-1.2-1.2l-0.5-1.4c-0.1-0.3-0.1-0.5-0.1-0.8l0.1-1.8
		c0-0.1,0-0.2,0-0.2l0.4-1.9l-0.2-0.4l-0.1,0l-0.8,0.5l-1.7,1.7l-2.3,3.2c0,0.1-0.1,0.1-0.1,0.2l-1.9,2c-0.4,0.4-0.9,0.6-1.5,0.6
		c0,0,0,0,0,0c-0.6,0-1.1-0.3-1.5-0.7l-0.9-1c-0.4-0.5-0.6-1.1-0.5-1.7l0.6-3c0-0.1,0.1-0.2,0.1-0.3L180,9.7l1.9-7.1l0.1-1.4
		c0-0.4,0.2-0.8,0.5-1.1l0.9-1c0.4-0.5,1-0.7,1.5-0.7c0.4,0,0.8,0.1,1.2,0.4l1,0.8c0.3,0.3,0.6,0.6,0.7,1l0.1,0.4
		c0.1,0.4,0.1,0.8,0,1.2L183.7,15l0.9-0.5c0.2-0.1,0.5-0.2,0.8-0.3l1.4-0.1c0.1,0,0.1,0,0.2,0c0.4,0,0.7,0.1,1,0.3l1.5,0.9
		c0.3,0.2,0.5,0.4,0.7,0.6L191,17c0.1,0.1,0.2,0.3,0.2,0.4l0.5,1.4c0.1,0.2,0.1,0.3,0.1,0.5l0.1,1.4c0,0.2,0,0.3,0,0.5l-0.5,3.3
		l0.2,1.1c0.1,0.4,0,0.8-0.1,1.2l-0.5,1.1C190.7,28.6,190,29.1,189.2,29.1z"/>
	<path class="st0" d="M195.2,28.9c-0.1,0-0.3,0-0.4,0l-1.5-0.3c-0.2-0.1-0.5-0.1-0.7-0.3l-1.1-0.7c-0.2-0.1-0.3-0.3-0.5-0.4
		l-0.7-0.8c-0.2-0.2-0.3-0.5-0.4-0.8l-0.3-1.2c-0.1-0.3-0.1-0.7,0-1l0.7-2.3c0.1-0.3,0.2-0.5,0.4-0.8l3-3.4c0.1-0.1,0.2-0.2,0.4-0.3
		l1.9-1.3c0.1-0.1,0.2-0.1,0.3-0.2l3.5-1.6c0.3-0.1,0.5-0.2,0.8-0.2c0.1,0,0.2,0,0.2,0l1.6,0.2c0.1,0,0.2,0,0.4,0.1l1.3,0.4
		c0.2,0.1,0.4,0.2,0.6,0.3l1.9,1.4c0.3,0.2,0.5,0.5,0.7,0.9l0.4,1.1c0.2,0.6,0.2,1.2-0.2,1.7l-3,4.9c-0.1,0.2-0.2,0.3-0.3,0.4
		l-1.6,1.5c-0.1,0.1-0.3,0.2-0.4,0.3l-2.2,1.2c-0.1,0.1-0.2,0.1-0.3,0.1l-2.6,0.9c-0.2,0.1-0.3,0.1-0.5,0.1l-1.5,0.1
		C195.3,28.9,195.3,28.9,195.2,28.9z M196.1,23.2l1.1-0.4l2.4-1.5l1.4-1.8l-2.1,1l-2.3,1.8l-0.7,0.8l0,0.1L196.1,23.2z"/>
	<path class="st0" d="M202.7,40.8c-0.5,0-1-0.2-1.4-0.6c-0.4-0.4-0.7-1-0.6-1.7l0.2-1.5c0-0.1,0-0.3,0.1-0.4l7.2-20.5
		c0-0.1,0.1-0.3,0.2-0.4c0.4-0.6,0.9-1.3,1.5-1.9c0.4-0.4,0.9-0.6,1.5-0.6c0.2,0,0.3,0,0.5,0.1l4.6,1.1c0.1,0,0.3,0.1,0.4,0.2l2,1
		c0.1,0.1,0.3,0.2,0.4,0.3l1.6,1.4c0.3,0.3,0.5,0.6,0.6,1l0.6,2.1c0.1,0.4,0.1,0.8,0,1.2l-0.8,2.1c-0.1,0.3-0.3,0.6-0.5,0.8
		l-1.6,1.5c-0.1,0.1-0.3,0.2-0.4,0.3l-1.9,1c-0.1,0.1-0.2,0.1-0.4,0.1l-4.2,1.3c-0.2,0.1-0.4,0.1-0.6,0.1c-0.1,0-0.2,0-0.3,0l-1-0.1
		l-4,10c-0.1,0.2-0.2,0.4-0.3,0.6l-0.8,0.9c-0.3,0.4-0.8,0.6-1.3,0.7l-1,0.1C202.9,40.8,202.8,40.8,202.7,40.8z M212.6,22.1l2.8-1.2
		l0.2-0.1l-0.5-0.3l-1.6-0.6L212.6,22.1z"/>
	<path class="st1" d="M23,5.1c0.4,0,0.8,0.2,1.1,0.6l0.2,2.2l-0.4,1.1l-0.2,1.4l0.1,1.3l-1.1,0.9L20.4,12l-3.7,0.6l-2.2,1l-2.4,1.8
		L11,17.3l-0.4,2l0.6,2l0.6,0.9l0.9,0.8l2.2,1.1l4,0.5l1.6-0.2l0.7,0.2c0.2,0.2,0.4,0.5,0.5,0.9l-0.8,1.2l-5.3-0.5l-2.8-0.9L11,24.3
		l-1.9-2.1l-0.6-2.7l0.3-2.5l0.4-1.2c1.7-2.4,4.1-4.2,7.3-5.4l2.6-0.6h2.5L22,8.6L22.4,6C22.5,5.7,22.7,5.4,23,5.1z"/>
	<path class="st1" d="M27.6,15.2l1,0.9v2l-0.4,1.8l-0.8,1.6l0.2,0.1l3-2.3l4-2.1l1.6-0.5l1.6,0.5l0.4,1.3l-1.9,0.5l-1.2-0.1
		l-4.4,2.3l-0.9,1L28.7,23l-2.9,3.4l-1.2,0.6c-0.4-0.4-0.5-0.8-0.6-1.4l2.1-5.7l0.2-1.8l0.5-1.6C27,16,27.3,15.6,27.6,15.2z"/>
	<path class="st1" d="M45.3,14.6l1.6,0.3l1.5,0.6l0.5,1.5l-0.6,1.6L44.3,21l-2.7,1.3l0.7,1.1l1.4,0.8l3.4,0.8l1.4-0.2h1.7l0.3,1.4
		L49,26.8l-1.5,0.1L44,26.2l-1.6-0.6l-1.3-0.8l-3.3-3.1l0.8-1.1l0.6-1.6l0.8-1.3l2.1-2l1.5-0.7L45.3,14.6z M45.1,16.9L42,18.6
		l-1,1.4l-0.2,0.6l1.1-0.2l3.2-1.6l1.3-1.1C46,17.3,45.6,17,45.1,16.9z"/>
	<path class="st1" d="M63.8,16.5l-1.9,0.7l-4.6,2.4l-2.4,2.4l-0.4,1.4l0.3,0.4l1.5,0.9l1.6-0.8l4.2-3.1l2.4-2.4l0.9-1.5l-0.2-0.1
		l0.6-0.1l1,0.3l-0.7,2.8L65.8,22c0.1,0.6,0.4,1.2,0.8,1.8c0.4,0.5,0.9,0.8,1.6,1.1l2.2,0.2l2.5-0.4l0.3,0.6l-0.7,1.1l-1.2,0.5
		l-1.7,0.1l-2.2-0.2l-1.7-1l-1.4-1.3l-0.7-2.5l-1.2,0.9L61,24l-3.1,2.3l-2,0.6l-1.7-0.1l-1.7-1.6L52,23l0.8-1.8l4.5-3.6l3.5-1.8
		c0.6-0.1,1.3-0.3,2-0.6c0.7,0,1.3,0.4,1.7,1.1v0.4C64.3,16.6,64,16.6,63.8,16.5z M64.6,16.7V17l0.6-0.1
		C65,16.8,64.8,16.8,64.6,16.7z"/>
	<path class="st1" d="M79.2,15.3l1.1,0.6l0.8,1.3l-0.3,2.2l1.7-0.6l3.8-2.6l1-0.3l1.3,0.8l1.1,2l0.1,2.3l-1.3,5.5l-1.1,0.8l-1-1.8
		l0.6-1l0.6-4.9l-0.3-0.5l-1.3-0.4l-4.3,3.3l-2.2,0.9c-0.6-0.4-1-1-1.3-1.8l0.4-1.9l-0.1-0.4l-0.8,0.3L77,19.7l-4.7,6.5l-0.9,0.6
		c-0.8,0-1.3-0.5-1.4-1.4l4.2-5.5C76.9,17.3,78.5,15.8,79.2,15.3z"/>
	<path class="st1" d="M103.3,7.8l1.7,0.6l0.7,1.7l0.4,2.1l-0.9,5.2l6.5-6.6l1.7-0.7l1.4,1.1l0.7,1.7l0.3,2.2l-0.1,2l-1.1,6.5
		l0.3,1.8l-1,1.5l-1.4-0.6l-0.4-2l1.4-7.9l-0.1-2l-0.9-1l-5.8,6.3l-1.4,1l-1.7,0.6l-1-1.6l-0.1-1.5l0.3-0.4l1-6l-0.4-0.8l-0.7,0.4
		l-8.8,12.9l-1.5,0.4l-0.6-1.3l10.3-14.8L103.3,7.8z"/>
	<path class="st1" d="M120,15.2l0.8,0.3l-0.2,2.2l0.2,1.7l0.6,1.3l1.1,0.8l1.3,0.1l1.6-0.7l3-2.8l0.7-1.3l1.3-0.5
		c0.4,0.2,0.6,0.6,0.7,1l-0.3,1.7l-1.1,2.6l-7,10.4l-3.8,4.3l-2.2,1.6l-2.1,0.4l-1.4-0.1c-0.5-0.1-0.8-0.4-0.9-0.8l0.4-0.8l1.8,0.5
		l2.4-1l3.5-3.6l4-5.6l2.7-4.5l-0.2-0.3l-1.3,0.7l-2.8,0.6l-1.7-0.7l-1-1l-0.7-1.1l-0.5-1.5l-0.1-2.2l0.2-1.2L120,15.2z"/>
	<path class="st1" d="M139.5,15.2l3.6,0.4l1-0.4l1.1,0.3l0.6,1l-0.2,0.9l-10.5,7.3l0.4,0.2l3.6-0.2l2.6-0.5l0.5,0.1l0.6,0.8l-0.3,1
		l-0.6,0.7l-1.2-0.2l-6.6,0.4l-2.1-0.3l-0.5-1l1.4-1.4l3.3-2.3l5.3-4.5l-1-0.3h-0.9l-3.5,0.6l-1-0.4l-0.2-0.6l1.2-0.9l1.1-0.3h1.2
		L139.5,15.2z"/>
	<path class="st1" d="M174.1,8l2.6,1.3l0.6,1.2l-0.9,1.2l-3.9-1.6l-4.8,0.4l-1.5,0.6l-0.1,0.7l1.3,1.8l5.3,4.5l1.4,2.3l0.6,2.5
		l-1.9,2.3l-1.3,0.7l-2.9,0.7l-5,0.3l-4.9-0.7l-1.3-0.6l-0.9-1.2l0.9-1.1l1.2,0.3l0.4-0.1l1.1,0.7l1.6,0.3h2.8l6.1-1.4l1.1-0.7
		l-0.3-1.6l-0.7-1.1l-2-2l-3.4-2.5l-1.6-2.3l-0.6-2.6l0.3-0.4l1.3-0.7l2.9-0.7l3.1-0.3L174.1,8z"/>
	<path class="st1" d="M184.9,0.3l1,0.8l0.1,0.4l-6.3,19.2l3.4-3.1l2.4-1.4l1.4-0.1l1.5,0.9l0.8,1.1l0.5,1.4l0.1,1.4l-0.5,3.6
		l0.3,1.4l-0.5,1.1l-1.3-0.5l-0.5-1.4l0.1-1.8l0.5-2.6l-0.8-1.7l-1.1-0.8l-1.4,0.5l-1.2,0.8l-1.9,1.9l-2.4,3.3l-1.9,2l-0.9-1l0.6-3
		l4.9-12.7l1.9-7.4l0.1-1.5L184.9,0.3z"/>
	<path class="st1" d="M200.8,15.2l1.6,0.2l1.3,0.4l1.9,1.4l0.4,1.1l-3,4.9l-1.6,1.5l-2.2,1.2l-2.6,0.9l-1.5,0.1l-1.5-0.3l-1.1-0.7
		l-0.7-0.8l-0.3-1.2l0.7-2.3l3-3.4l1.9-1.3L200.8,15.2z M201.1,17.2l-3.3,1.6l-2.6,2l-1.1,1.2l-0.4,1.3l0.4,1.5l2.2,0.4l1.8-0.7
		l2.9-1.8l1.9-2.4l0.7-1.3l-1-1C202.3,17.6,201.8,17.3,201.1,17.2z"/>
	<path class="st1" d="M211.3,15.2l4.6,1.1l2,1l1.6,1.4l0.6,2.1l-0.8,2.1l-1.6,1.5l-1.9,1l-4.2,1.3l-2.6-0.4l-4.6,11.5l-0.8,0.9
		l-1,0.1l0.2-1.5l7.2-20.5C210.4,16.3,210.8,15.7,211.3,15.2z M213.3,17.6l-1.3,0.5l-2.2,5.4l1,0.9l1.6-0.1l4.1-1.7l1-0.9l0.5-1.4
		l-0.9-1l-1.1-0.7L213.3,17.6z"/>
</g>
</svg>
